<svg width="31" height="32" viewBox="0 0 31 32" fill="none" xmlns="http://www.w3.org/2000/svg">
<path fill-rule="evenodd" clip-rule="evenodd" d="M29.6132 16.0061C29.6097 24.0701 23.0703 30.6044 15.0064 30.6009C6.9428 30.5975 0.408542 24.0577 0.411972 15.9937C0.415402 7.93016 6.95522 1.39591 15.0188 1.39934C23.0827 1.40277 29.6166 7.94258 29.6132 16.0061Z" fill="url(#paint0_linear)"/>
<path d="M20.6407 18.031C20.7594 18.1498 20.952 18.1499 21.0708 18.0312C21.1897 17.9125 21.1898 17.7199 21.071 17.601L15.4035 11.9282C15.2847 11.8094 15.0921 11.8093 14.9733 11.928L9.3005 17.596C9.18165 17.7147 9.18157 17.9073 9.30031 18.0262C9.41905 18.145 9.61165 18.1451 9.73049 18.0264L15.1881 12.5734L20.6407 18.031Z" fill="white" stroke="black" stroke-width="1.66738"/>
<mask id="mask0" mask-type="alpha" maskUnits="userSpaceOnUse" x="4" y="6" width="22" height="17">
<path d="M14.9644 9.55599C14.3767 9.60655 13.8028 9.8566 13.3528 10.3062L7.68004 15.9742C6.66549 16.9879 6.66479 18.6321 7.67848 19.6466C8.69217 20.6612 10.3364 20.6619 11.3509 19.6482L15.1867 15.8157L19.0188 19.6514C20.0324 20.666 21.6766 20.6667 22.6912 19.6531C23.7058 18.6394 23.7066 16.9952 22.6929 15.9806L17.0254 10.3078C16.5758 9.85783 16.0022 9.60727 15.4145 9.55619L15.1895 9.33106L14.9644 9.55599Z" fill="white" stroke="white" stroke-width="4.58528"/>
</mask>
<g mask="url(#mask0)">
</g>
<defs>
<linearGradient id="paint0_linear" x1="13.339" y1="38.0865" x2="29.6132" y2="16.0063" gradientUnits="userSpaceOnUse">
<stop stop-color="#FFD037"/>
<stop offset="0.0138146" stop-color="#87037A"/>
<stop offset="0.268443" stop-color="#87037A"/>
<stop offset="1" stop-color="#ED8103" stop-opacity="0.94"/>
</linearGradient>
</defs>
</svg>
