<svg width="14" height="18" viewBox="0 0 14 18" fill="none" xmlns="http://www.w3.org/2000/svg">
<path d="M7.00138 10.4277C8.79251 10.4277 10.2516 8.97484 10.2516 7.17452C10.2516 5.37085 8.79387 3.91667 7.00138 3.91667C5.20925 3.91667 3.75163 5.371 3.75163 7.17452C3.75163 8.9747 5.2106 10.4277 7.00138 10.4277ZM9.25163 7.17452C9.25163 8.42191 8.24088 9.42767 7.00138 9.42767C5.76238 9.42767 4.75163 8.42191 4.75163 7.17452C4.75163 5.92236 5.76245 4.91667 7.00138 4.91667C8.24081 4.91667 9.25163 5.92237 9.25163 7.17452ZM12.9183 6.90936C12.9183 9.34234 11.7424 11.4655 9.13025 14.2718C9.14307 14.258 7.85745 15.5937 7.00199 16.5125C6.63983 16.1234 6.20375 15.663 5.82165 15.2619C5.5583 14.9855 5.31957 14.7361 5.14669 14.5558L4.94181 14.3424L4.88602 14.2843L4.87148 14.2692L4.86945 14.2671C2.2597 11.4627 1.08496 9.34074 1.08496 6.90936C1.08496 3.61612 3.79527 1.25 7.00187 1.25C10.144 1.25 12.9183 3.66451 12.9183 6.90936Z" stroke="#FFCC00" stroke-linecap="round" stroke-linejoin="round"/>
</svg>
