<svg width="617" height="555" viewBox="0 0 617 555" fill="none" xmlns="http://www.w3.org/2000/svg">
<g filter="url(#filter0_f)">
<path d="M229.432 288.787L365.516 334.265L323.155 471.351L85.0076 391.765L159.139 151.864L218.676 171.761L208.086 206.032L182.57 197.505L129.619 368.863L299.724 425.71L321.029 356.765L218.841 323.059L229.432 288.787V288.787ZM292.973 83.1578L250.612 220.244L386.696 265.722L397.286 231.45L295.099 197.744L316.404 128.799L486.509 185.646L433.558 357.004L408.042 348.477L397.452 382.748L456.988 402.645L531.12 162.744L292.973 83.1578Z" fill="url(#paint0_linear)"/>
</g>
<defs>
<filter id="filter0_f" x="0" y="0" width="616.128" height="554.508" filterUnits="userSpaceOnUse" color-interpolation-filters="sRGB">
<feFlood flood-opacity="0" result="BackgroundImageFix"/>
<feBlend mode="normal" in="SourceGraphic" in2="BackgroundImageFix" result="shape"/>
<feGaussianBlur stdDeviation="1.5" result="effect1_foregroundBlur"/>
</filter>
<linearGradient id="paint0_linear" x1="226.056" y1="117.511" x2="390.072" y2="436.998" gradientUnits="userSpaceOnUse">
<stop stop-color="#2A005F"/>
<stop offset="0.515625" stop-color="#30002E"/>
<stop offset="1" stop-color="#160F31"/>
</linearGradient>
</defs>
</svg>
